# xmcd
#
# Track frame offsets: 
#        150
#        24834
#        46983
#        67390
#        83224
#        108089
#        126677
#        150882
#        169975
#        194049
#        213785
#        240428
#        263113
#
# Disc length: 3825 seconds
#
# Revision: 2
# Processed by: cddbd v1.5.2PL0 Copyright (c) Steve Scherf et al.
# Submitted via: ExactAudioCopy v1.1
#
DISCID=b00eef0d
DTITLE=Thunder - The Magnificent Five Do Xmas - Live 2005
DYEAR=2006
DGENRE=Rock
TTITLE0=Amy's On The Run
TTITLE1=The Gods Of Love
TTITLE2=Love Worth Dying For
TTITLE3=Itchycoo Park
TTITLE4=Future Train
TTITLE5=Harvest For The World
TTITLE6=The Thrill Of It All
TTITLE7=Something About You
TTITLE8='Til The River Runs Dry
TTITLE9=Change
TTITLE10=With A Little Help From My Friends
TTITLE11=Make Me Smile (Come Up And See Me)
TTITLE12=I Wish It Could Be Christmas Every Day
EXTD=
EXTT0=
EXTT1=
EXTT2=
EXTT3=
EXTT4=
EXTT5=
EXTT6=
EXTT7=
EXTT8=
EXTT9=
EXTT10=
EXTT11=
EXTT12=
PLAYORDER=
